<?xml version="1.0" encoding="UTF-8"?>
<svg width="120px" height="120px" viewBox="0 0 120 120" version="1.1" xmlns="http://www.w3.org/2000/svg" xmlns:xlink="http://www.w3.org/1999/xlink">
    <title>imaginbank/icon/imaginbank_secundario                  </title>
    <g id="imaginbank/icon/imaginbank_secundario------------------" stroke="none" stroke-width="1" fill="none" fill-rule="evenodd">
        <path d="M87.3902098,64.5595238 C88.0615385,63.6150794 89.4041958,63.3452381 90.4111888,64.0198413 C91.351049,64.6944444 91.6195804,66.0436508 90.9482517,67.0555556 C90.5454545,67.6626984 90.0755245,68.2698413 89.6055944,68.8769841 C83.5636364,76.5 74.5006993,80.8849206 64.7664336,80.8849206 L64.7664336,80.8849206 L37.3090909,80.8849206 L37.3090909,89.25 C37.3090909,96.265873 31.6027972,102 24.620979,102 C21.2643357,102 18.1090909,100.718254 15.6923077,98.2896825 C13.3426573,95.9285714 12,92.6904762 12,89.3174603 C12,82.3015873 17.7062937,76.5674603 24.6881119,76.5674603 L24.6881119,76.5674603 L33.0125874,76.5674603 L33.0125874,65.8412698 C33.0125874,64.6269841 33.9524476,63.6825397 35.1608392,63.6825397 C36.3692308,63.6825397 37.3090909,64.6269841 37.3090909,65.8412698 L37.3090909,65.8412698 L37.3090909,76.5 L64.7664336,76.5 C73.158042,76.5 81.0125874,72.7222222 86.248951,66.1111111 C86.6517483,65.6388889 87.0545455,65.0992063 87.3902098,64.5595238 Z M32.9454545,80.8849206 L24.620979,80.8849206 C20.0559441,80.8849206 16.2965035,84.5952381 16.2965035,89.25 C16.2965035,91.4761905 17.1020979,93.6349206 18.7132867,95.1865079 C20.3244755,96.7380952 22.4055944,97.6150794 24.620979,97.6150794 C29.186014,97.6150794 32.9454545,93.9047619 32.9454545,89.25 L32.9454545,89.25 L32.9454545,80.8849206 Z M77.8573427,42.4325397 C82.5566434,42.4325397 86.3160839,46.2777778 86.3160839,50.9325397 L86.3160839,50.9325397 L86.3832168,50.9325397 L86.3832168,57.6785714 L86.37944,57.9351935 C86.2438023,62.5369185 82.4724221,66.1785714 77.9244755,66.1785714 C75.3062937,66.1785714 72.8895105,64.9642857 71.2783217,62.9404762 C70.606993,62.1309524 70.7412587,60.984127 71.5468531,60.3769841 C72.3524476,59.702381 73.4937063,59.8373016 74.0979021,60.6468254 C74.9706294,61.7936508 76.3804196,62.468254 77.8573427,62.468254 C80.4083916,62.468254 82.5566434,60.4444444 82.6909091,57.8809524 C81.2811189,58.8928571 79.6699301,59.4325397 77.8573427,59.4325397 C73.158042,59.4325397 69.3986014,55.5873016 69.3986014,50.9325397 C69.3986014,46.2103175 73.2251748,42.4325397 77.8573427,42.4325397 Z M64.565035,42.5 C65.572028,42.5 66.3776224,43.3095238 66.4447552,44.3214286 L66.4447552,44.3214286 L66.4447552,57.6785714 C66.4447552,58.6904762 65.6391608,59.5 64.6321678,59.5 C63.6923077,59.5 62.9538462,58.8253968 62.8195804,57.9484127 C61.4769231,58.8928571 59.7986014,59.5 57.986014,59.5 C53.2867133,59.5 49.5272727,55.7222222 49.5272727,51 C49.5272727,46.2777778 53.3538462,42.5 57.986014,42.5 C59.7986014,42.5 61.4769231,43.1071429 62.8195804,44.0515873 C62.8867133,43.1746032 63.6923077,42.5 64.565035,42.5 Z M17.3034965,42.5 C18.3104895,42.5 19.1160839,43.3095238 19.1160839,44.3214286 L19.1160839,44.3214286 L19.1160839,57.6785714 C19.1160839,58.6904762 18.3104895,59.5 17.3034965,59.5 C16.2965035,59.5 15.4909091,58.6904762 15.4909091,57.6785714 L15.4909091,57.6785714 L15.4909091,44.3214286 C15.4909091,43.3095238 16.2965035,42.5 17.3034965,42.5 Z M91.7538462,42.5 C92.7608392,42.5 93.5664336,43.3095238 93.5664336,44.3214286 L93.5664336,44.3214286 L93.5664336,57.6785714 C93.5664336,58.6904762 92.7608392,59.5 91.7538462,59.5 C90.7468531,59.5 89.9412587,58.6904762 89.9412587,57.6785714 L89.9412587,57.6785714 L89.9412587,44.3214286 C89.9412587,43.3095238 90.7468531,42.5 91.7538462,42.5 Z M41.0013986,42.4325397 C44.0223776,42.4325397 46.4391608,44.8611111 46.4391608,47.8968254 L46.4391608,57.6111111 C46.4391608,58.6230159 45.6335664,59.4325397 44.6265734,59.4325397 C43.6195804,59.4325397 42.813986,58.6230159 42.813986,57.6111111 L42.813986,47.8968254 C42.813986,46.8849206 42.0083916,46.0753968 41.0013986,46.0753968 C39.9944056,46.0753968 39.1888112,46.8849206 39.1888112,47.8968254 L39.1888112,54.7777778 C39.1888112,57.3412698 37.1076923,59.4325397 34.5566434,59.4325397 C32.0055944,59.4325397 29.9244755,57.3412698 29.9244755,54.7777778 L29.9244755,47.8968254 C29.9244755,46.8849206 29.1188811,46.0753968 28.1118881,46.0753968 C27.1048951,46.0753968 26.2993007,46.8849206 26.2993007,47.8968254 L26.2993007,57.6111111 C26.2993007,58.6230159 25.4937063,59.4325397 24.4867133,59.4325397 C23.4797203,59.4325397 22.6741259,58.6230159 22.6741259,57.6111111 L22.6741259,47.8968254 C22.6741259,44.8611111 25.0909091,42.4325397 28.1118881,42.4325397 C31.1328671,42.4325397 33.5496503,44.8611111 33.5496503,47.8968254 L33.5496503,54.7777778 C33.5496503,55.3174603 34.0195804,55.7896825 34.5566434,55.7896825 C35.0937063,55.7896825 35.5636364,55.3174603 35.5636364,54.7777778 L35.5636364,47.8968254 C35.5636364,44.8611111 37.9804196,42.4325397 41.0013986,42.4325397 Z M102.562238,42.4325397 C105.583217,42.4325397 108,44.8611111 108,47.8968254 L108,57.6111111 C108,58.6230159 107.194406,59.4325397 106.187413,59.4325397 C105.18042,59.4325397 104.374825,58.6230159 104.374825,57.6111111 L104.374825,47.8968254 C104.374825,46.8849206 103.569231,46.0753968 102.562238,46.0753968 C101.555245,46.0753968 100.74965,46.8849206 100.74965,47.8968254 L100.74965,57.6111111 C100.74965,58.6230159 99.9440559,59.4325397 98.9370629,59.4325397 C97.9300699,59.4325397 97.1244755,58.6230159 97.1244755,57.6111111 L97.1244755,47.8968254 C97.1244755,44.8611111 99.5412587,42.4325397 102.562238,42.4325397 Z M57.9188811,46.0753968 C55.2335664,46.0753968 53.0853147,48.234127 53.0853147,50.9325397 C53.0853147,53.6309524 55.2335664,55.7896825 57.9188811,55.7896825 C60.6041958,55.7896825 62.7524476,53.6309524 62.7524476,50.9325397 C62.7524476,48.234127 60.6041958,46.0753968 57.9188811,46.0753968 Z M77.8573427,46.0753968 C75.172028,46.0753968 73.0237762,48.234127 73.0237762,50.9325397 C73.0237762,53.6309524 75.172028,55.7896825 77.8573427,55.7896825 C80.5426573,55.7896825 82.6909091,53.6309524 82.6909091,50.9325397 L82.6909091,50.9325397 L82.6862333,50.7149641 C82.5743951,48.1190157 80.4700813,46.0753968 77.8573427,46.0753968 Z M64.6993007,17 C67.8545455,17 71.0097902,17.4047619 73.9636364,18.3492063 C82.4895105,20.9126984 89.6055944,27.0515873 93.4321678,35.1468254 C93.9692308,36.2261905 93.4993007,37.5753968 92.4251748,38.047619 C92.0895105,38.1825397 91.820979,38.25 91.4853147,38.25 C90.6797203,38.25 89.9412587,37.8452381 89.5384615,37.0357143 C86.248951,30.0873016 80.0727273,24.7579365 72.7552448,22.531746 C70.2041958,21.7222222 67.5188811,21.3174603 64.7664336,21.3174603 C54.2937063,21.3174603 44.5594406,27.5238095 39.9944056,37.0357143 C39.4573427,38.1150794 38.1818182,38.5873016 37.1076923,38.047619 C36.0335664,37.5079365 35.5636364,36.2261905 36.1006993,35.1468254 C41.3370629,24.1507937 52.6153846,17 64.6993007,17 Z" id="Combined-Shape" fill="#000000"></path>
    </g>
</svg>